<svg xmlns="http://www.w3.org/2000/svg" width="1164px" height="462px" viewBox="0 0 1164 462" shape-rendering="geometricPrecision" text-rendering="geometricPrecision" image-rendering="optimizeQuality" fill-rule="evenodd" clip-rule="evenodd"><defs><style><![CDATA[
    .fil0 {fill:black}
    .fil2 {fill:#FEFEFE;fill-rule:nonzero}
    .fil1 {fill:#F7A707;fill-rule:nonzero}
   ]]></style></defs><g id="Слой_x0020_1"><g id="_224287030160"><path class="fil0" d="M-1 462h1164V0H-1z"/><path class="fil1" d="M243 280l42-171v-5h-24l-31 132-29-132h-25v5l42 171zM303 280h26V104h-26zM425 148v22c0 2 0 4-1 7 0 2-2 5-3 7-2 2-4 3-6 4-3 2-6 2-9 2h-19v-63h19c3 0 6 1 9 2 2 1 4 3 6 5 1 2 3 4 3 7 1 2 1 4 1 7zm-64 132h26v-67h19c14 0 25-4 34-11 8-8 12-18 12-32v-22c0-14-4-25-12-32-9-8-20-12-34-12h-45v176z"/><path class="fil2" d="M554 247v-13c0-9-1-16-3-21-2-6-5-11-8-15-4-4-9-7-14-10-6-3-12-6-19-9-3-1-6-3-8-5-2-1-4-3-5-6-2-2-2-4-3-7v-23c0-3 0-5 1-6 1-2 2-4 4-5s3-1 5-2c2 0 4-1 6-1s4 1 6 1c2 1 4 1 6 2 1 1 3 3 4 5s1 4 1 6v28h26v-28c0-7-1-12-3-17-3-5-6-8-11-11-4-3-8-5-14-7-5-1-10-1-15-1s-10 0-15 1c-5 2-10 4-14 7s-7 6-10 11-4 10-4 17v13c0 8 1 16 3 22 2 5 5 10 9 14s8 7 14 10c5 3 11 5 17 8 4 2 7 4 10 6 2 2 4 4 5 6 2 2 2 4 3 7v23c0 2 0 4-1 6s-3 3-5 4c-1 1-3 2-5 3h-13l-6-3c-1-1-3-2-4-4s-2-4-2-6v-28h-26v28c0 6 1 12 4 17 3 4 6 8 10 11 5 3 9 5 14 6 6 1 11 2 16 2s10-1 16-2c5-1 10-3 14-6s8-7 10-11c3-5 4-11 4-17zM596 280h27V127h30v-23h-87v23h30zM729 138v109c0 2 0 4-1 6-2 2-3 3-5 4-1 1-3 2-5 3h-13l-6-3c-1-1-3-2-4-4s-2-4-2-6V138c0-3 1-5 2-6 1-2 3-4 4-5 2-1 4-1 6-2 2 0 4-1 6-1s4 1 7 1c2 1 4 1 5 2 2 1 3 3 5 5 1 2 1 4 1 6zm-62 0v109c0 6 1 12 4 17 3 4 6 8 10 11 5 3 9 5 15 6 5 1 10 2 15 2s11-1 16-2 10-3 14-6 8-7 11-11c2-5 4-11 4-17V138c0-7-2-12-4-17-3-5-7-8-11-11s-9-5-14-7c-5-1-11-1-16-1s-10 0-15 1c-6 2-10 4-15 7-4 3-7 6-10 11s-4 10-4 17zM849 280h28v-4l-24-72c7-4 12-9 15-15 4-6 5-13 5-22v-21c0-14-4-24-11-31-8-7-18-11-31-11h-47v176h26v-70h18l21 70zm-2-135v22c0 2 0 4-1 7l-3 6c-1 2-3 4-5 5s-4 2-7 2h-21v-60h21c3 0 5 1 7 2s4 2 5 4l3 6c1 2 1 4 1 6zM986 247v-28h-26v28c0 2-1 4-2 6s-3 3-4 4l-6 3h-12l-6-3c-2-1-3-2-4-4-2-2-2-4-2-6v-46h62v-63c0-7-1-12-4-17s-6-8-10-11c-5-3-9-5-15-7-5-1-10-1-15-1s-11 0-16 1c-5 2-10 4-14 7s-8 6-11 11c-2 5-4 10-4 17v109c0 6 2 12 4 17 3 4 7 8 11 11s9 5 14 6 11 2 16 2 10-1 15-2c6-1 10-3 15-6 4-3 7-7 10-11 3-5 4-11 4-17zm-26-69h-36v-40c0-2 0-4 2-6 1-2 2-4 4-5s4-1 6-2c2 0 4-1 6-1s4 1 6 1c2 1 4 1 6 2 1 1 3 3 4 5 1 1 2 3 2 6v40zM200 384v-51h-28v51h8v-45h12v45zM228 345v9c-1 1-1 1-1 2-1 0-1 1-2 1-1 1-2 1-3 1h-5v-19h5c1 0 2 1 3 1s1 1 2 1c0 1 0 2 1 2v2zm-19 39h8v-20h5c4 0 8-1 10-3s4-5 4-9v-7c0-4-2-7-4-9s-6-3-10-3h-13v51zM267 374v-8h-8v10c-1 0-1 1-2 1l-1 1h-4c-1 0-1-1-2-1 0 0 0-1-1-1v-15h18v-18c0-2-1-4-1-5-1-2-2-3-3-4-2 0-3-1-5-1-1-1-3-1-4-1-2 0-3 0-5 1-1 0-3 1-4 1-1 1-2 2-3 4-1 1-1 3-1 5v31c0 2 0 4 1 5l3 3c1 1 3 2 4 2 2 0 3 1 5 1 1 0 3-1 4-1 2 0 3-1 5-2l3-3c0-1 1-3 1-5zm-8-20h-10v-11-2c1-1 1-1 1-2h7l2 2v13zM302 384h8v-51h-7l-11 22-11-22h-7v51h8v-35l10 20 10-20zM339 384h8v-51h-7l-13 32v-32h-8v51h7l13-32zM367 384h13v-41c0-2-1-4-1-5-1-2-2-3-3-4-2-1-3-1-5-2h-9c-1 1-3 1-4 2s-2 2-3 4c-1 1-1 3-1 5v7h8v-7-2c1-1 1-1 1-2h7l2 2v13l-5 1c-2 0-3 1-5 1-1 1-2 1-4 2-1 1-2 2-3 4-1 1-1 3-1 5v6c0 2 0 4 1 5s2 3 3 3c1 1 3 2 4 2 2 1 3 1 5 1zm5-24v17h-7s-1 0-2-1l-1-1v-8-2c1-1 1-2 1-2 1 0 2-1 2-1h2l5-2zM408 384h7v-51h-24v36c0 2-1 4-1 5-1 1-1 2-2 3h-4v7c3 0 5-1 7-1 2-1 4-2 5-4s2-4 2-7c1-2 1-6 1-10v-23h9v45zM438 377h-6v-18h6c1 0 2 0 2 1 1 0 2 0 2 1 1 1 1 1 1 2v10c0 1 0 2-1 2 0 1-1 1-2 2h-2zm13-6v-6c0-4-1-7-4-9-2-3-5-4-9-4h-6v-19h-7v51h13c4 0 7-1 9-3 3-2 4-6 4-10zM485 384v-51h-7v21h-13v-21h-7v51h7v-23h13v23zM511 343v33l-1 1c-1 0-1 1-2 1h-2-2l-1-1c-1 0-1-1-1-1-1-1-1-1-1-2v-31c0-1 0-2 1-2 0-1 0-1 1-2h7c0 1 1 1 1 2v2zm-18 0v31c0 2 1 4 2 5 0 1 1 2 3 3 1 1 2 2 4 2 1 0 3 1 4 1 2 0 3-1 5-1 1 0 3-1 4-2l3-3c1-1 1-3 1-5v-31c0-2 0-4-1-5-1-2-2-3-3-4-1 0-3-1-4-1-2-1-3-1-5-1-1 0-3 0-4 1-2 0-3 1-4 1-2 1-3 2-3 4-1 1-2 3-2 5zM552 374v-8h-8v10c-1 0-1 1-2 1l-1 1h-4s-1-1-2-1c0 0 0-1-1-1v-15h18v-18c0-2-1-4-1-5-1-2-2-3-3-4-2 0-3-1-5-1-1-1-3-1-4-1-2 0-3 0-5 1-1 0-3 1-4 1-1 1-2 2-3 4-1 1-1 3-1 5v31c0 2 0 4 1 5l3 3c1 1 3 2 4 2 2 0 3 1 5 1 1 0 3-1 4-1 2 0 3-1 5-2l3-3c0-1 1-3 1-5zm-8-20h-10v-11-2c1-1 1-1 1-2h7l2 2v13zM589 343v33l-1 1c-1 0-1 1-2 1h-2-2l-1-1c-1 0-1-1-1-1-1-1-1-1-1-2v-31c0-1 0-2 1-2 0-1 0-1 1-2h7c0 1 1 1 1 2v2zm-18 0v31c0 2 1 4 2 5 0 1 1 2 3 3 1 1 2 2 4 2 1 0 3 1 4 1 2 0 3-1 5-1 1 0 3-1 4-2l3-3c1-1 1-3 1-5v-31c0-2 0-4-1-5-1-2-2-3-3-4-1 0-3-1-4-1-2-1-3-1-5-1-1 0-3 0-4 1-2 0-3 1-4 1-2 1-3 2-3 4-1 1-2 3-2 5zM618 377h-5v-16h5c2 0 4 0 5 1s1 3 1 4v6c0 1 0 2-1 4-1 1-3 1-5 1zm14-5v-6c0-4-1-7-4-9-2-2-6-3-10-3h-5v-15h15v-6h-23v51h13c4 0 8-1 10-3 3-2 4-5 4-9zM656 366v8c0 1-1 1-1 2l-1 1c-1 0-1 1-2 1h-2-1c-1 0-2-1-2-1-1 0-1-1-1-1-1-1-1-1-1-2v-31c0-1 0-2 1-2 0-1 0-1 1-2h7c0 1 1 1 1 2 0 0 1 1 1 2v8h7v-8c0-2 0-4-1-5-1-2-2-3-3-4-1 0-3-1-4-1-2-1-3-1-5-1-1 0-3 0-4 1-2 0-3 1-4 1-2 1-3 2-3 4-1 1-1 3-1 5v31c0 2 0 4 1 5 0 1 1 2 3 3 1 1 2 2 4 2 1 0 3 1 4 1 2 0 3-1 5-1 1 0 3-1 4-2l3-3c1-1 1-3 1-5v-8h-7zM690 384h8v-51h-24v36c0 2-1 4-1 5l-3 3h-3v7c3 0 5-1 7-1 2-1 3-2 4-4 2-2 2-4 3-7 0-2 1-6 1-10v-23h8v45zM721 376l11-42v-1h-7l-6 27-8-27h-7v1l11 36-1 5c0 1-1 2-1 2-1 0-2 1-3 1s-2-1-3-1v7h4c2 0 5 0 6-2 2-1 4-3 4-6zM776 384h8v-1l-12-25 11-24v-1h-8l-10 21h-2v-21h-8v21h-2l-10-21h-8v1l11 24-12 25v1h8l11-23h2v23h8v-23h2zM809 384h8v-51h-7l-13 32v-32h-8v51h8l12-32zM826 384h15c2 0 4 0 5-1 2-1 3-2 4-3s2-2 2-3c1-2 1-3 1-5v-6c0-4-2-7-6-9 2-1 3-2 3-4 1-1 2-2 2-4v-6c0-2-1-3-1-4-1-2-2-3-3-3-1-1-2-2-3-2-2-1-3-1-5-1h-14v51zm19-18v6c0 2 0 3-1 4s-2 1-4 1h-6v-16h6c2 0 3 0 4 1s1 3 1 4zm-1-22v6c0 1 0 2-1 3s-2 1-3 1h-6v-15h6c1 0 2 1 3 2s1 2 1 3zM871 384h13v-41c0-2-1-4-1-5-1-2-2-3-3-4-2-1-3-1-5-2h-9c-1 1-3 1-4 2s-2 2-3 4c-1 1-1 3-1 5v7h8v-7-2c1-1 1-1 1-2h7l2 2v13l-5 1c-2 0-3 1-5 1-1 1-2 1-4 2-1 1-2 2-3 4-1 1-1 3-1 5v6c0 2 0 4 1 5s2 3 3 3c1 1 3 2 4 2 2 1 3 1 5 1zm5-24v17h-7s-1 0-2-1l-1-1v-8-2c1-1 1-2 1-2 1 0 2-1 2-1h2l5-2zM920 384v-51h-8v21h-12v-21h-8v51h8v-23h12v23zM949 384h7v-51h-7l-12 32v-32h-8v51h7l13-32zM990 374v-8h-7v8c0 1-1 1-1 2l-1 1c-1 0-1 1-2 1h-2-1c-1 0-2-1-2-1-1 0-1-1-1-1-1-1-1-1-1-2v-13h18v-18c0-2 0-4-1-5-1-2-2-3-3-4-1 0-3-1-4-1-2-1-3-1-5-1-1 0-3 0-4 1-2 0-3 1-4 1-2 1-3 2-3 4-1 1-2 3-2 5v31c0 2 1 4 2 5 0 1 1 2 3 3 1 1 2 2 4 2 1 0 3 1 4 1 2 0 3-1 5-1 1 0 3-1 4-2l3-3c1-1 1-3 1-5zm-7-20h-11v-11c0-1 0-2 1-2 0-1 0-1 1-2h7c0 1 1 1 1 2 0 0 1 1 1 2v11z"/></g></g></svg>