<svg xmlns="http://www.w3.org/2000/svg" width="1854px" height="437px" viewBox="0 0 1854 437" shape-rendering="geometricPrecision" text-rendering="geometricPrecision" image-rendering="optimizeQuality" fill-rule="evenodd" clip-rule="evenodd"><defs><style><![CDATA[
    .str0 {stroke:#2B2A29;stroke-width:2.36178}
    .fil0 {fill:black}
    .fil2 {fill:#FEFEFE;fill-rule:nonzero}
    .fil1 {fill:#F7A709;fill-rule:nonzero}
   ]]></style></defs><g id="Слой_x0020_1"><path class="fil0 str0" d="M-1-7h1856v444H-1z"/><path class="fil1" d="M342 138v131h36v-39h13l17 39h41l-28-50 27-44h-38l-19 34h-13v-71z"/><path id="1" class="fil1" d="M531 221c0 10-2 14-3 17-3 3-7 8-15 8-6 0-11-3-15-8-3-6-4-12-4-17 0-4 1-11 4-16 4-5 9-8 15-8 8 0 12 5 15 8 1 2 3 7 3 16zm36-83h-37v49c-8-13-21-15-29-15-14 0-25 5-32 14-7 7-13 19-13 36s6 28 13 36 18 14 32 14c8 0 21-2 29-15l2 12h35V138z"/><path id="2" class="fil2" d="M585 175v94h37v-50c0-6 0-10 1-14 2-4 6-6 10-6 2 0 6 1 8 6 1 3 1 7 1 12v52h36v-52c0-7 1-10 1-12 1-3 3-6 9-6s8 3 9 6c1 1 1 4 1 12v52h37v-50c0-10 0-22-5-31-8-14-20-16-29-16s-20 2-28 15c-6-13-19-15-25-15-7 0-19 2-26 15l-2-12h-35z"/><path id="3" class="fil2" d="M858 175h-35l-1 12c-6-10-17-15-30-15-14 0-24 5-32 14-6 7-12 19-12 36s6 28 12 36c8 8 18 14 32 14 20 0 27-11 30-15l1 12h35v-94zm-35 46c0 5-1 12-4 17-4 5-8 8-15 8-6 0-11-3-15-8-3-6-3-12-3-17 0-4 0-11 3-16 4-5 9-8 15-8 7 0 11 3 15 8 3 5 4 11 4 16z"/><path id="4" class="fil2" d="M877 175v94h36v-46c0-5 0-11 3-16 2-3 5-8 13-8 9 0 17 5 22 10v-34c-1 0-7-3-13-3s-13 2-18 6c-3 3-5 6-7 9l-1-12h-35z"/><path id="5" class="fil2" d="M960 138v131h37v-39h12l18 39h40l-27-50 26-44h-38l-19 34h-12v-71z"/><path id="6" class="fil2" d="M1147 237c0 2-1 5-3 8-4 5-8 7-15 7-5 0-12-2-16-10-2-4-3-10-3-14h75v-2c0-21-8-33-15-40-13-13-30-15-40-15-12 0-27 2-39 13-14 12-16 27-16 38 0 19 8 31 16 38 7 6 19 13 39 13 6 0 27-1 41-14 5-4 11-12 13-22h-37zm-17-46c4 0 10 1 14 6 2 2 5 6 5 12h-39c1-6 3-10 5-12 5-5 10-6 15-6z"/><path id="7" class="fil2" d="M1192 175v24h16v70h36v-70h15v-24h-15v-32l-36 19v13z"/><path id="8" class="fil2" d="M1272 237v32h36v-32z"/><path id="9" class="fil2" d="M1328 175v94h36v-46c0-5 0-11 3-16 2-3 6-8 13-8 9 0 17 5 22 10v-34c-1 0-7-3-13-3s-13 2-18 6c-3 3-5 6-7 9l-1-12h-35z"/><path id="10" class="fil2" d="M1409 175v53c0 9 0 21 7 31 3 3 11 13 29 13 9 0 16-3 21-7 4-3 7-7 8-8l1 12h35v-94h-36v50c0 5-1 9-3 14-4 6-9 7-13 7-5 0-8-3-9-5-2-4-2-9-2-13v-53h-38z"/></g></svg>